<svg width="100" height="100" viewBox="0 0 100 100" fill="none" xmlns="http://www.w3.org/2000/svg">
<path d="M9.375 34.375H90.625" stroke="#3A7AF7" stroke-width="3" stroke-miterlimit="10" stroke-linecap="round" stroke-linejoin="round"/>
<path d="M21.875 28.125C20.9375 28.125 20.3125 27.8125 19.6875 27.1875C19.0625 26.5625 18.75 25.9375 18.75 25C18.75 24.0625 19.0625 23.4375 19.6875 22.8125L20 22.5C20.3125 22.5 20.3125 22.1875 20.625 22.1875C20.9375 21.875 20.9375 21.875 21.25 21.875C21.5625 21.875 22.1875 21.875 22.5 21.875C22.8125 21.875 22.8125 21.875 23.125 22.1875C23.4375 22.1875 23.4375 22.5 23.75 22.5L24.0625 22.8125C24.375 23.125 24.6875 23.4375 24.6875 23.75C25 24.0625 25 24.6875 25 25C25 25.3125 25 25.9375 24.6875 26.25C24.6875 26.5625 24.375 26.875 24.0625 27.1875C23.4375 27.8125 22.8125 28.125 21.875 28.125Z" fill="#3A7AF7"/>
<path d="M31.25 28.1248C30.3125 28.1248 29.6875 27.8123 29.0625 27.1873C28.4375 26.5623 28.125 25.9373 28.125 24.9998C28.125 24.6873 28.125 24.0623 28.4375 23.7498C28.75 23.4373 28.75 23.1248 29.0625 22.8123C29.375 22.4998 29.6875 22.1873 30 22.1873C31.25 21.5623 32.5 21.8748 33.4375 22.8123C33.75 23.1248 34.0625 23.4373 34.0625 23.7498C34.375 24.0623 34.375 24.6873 34.375 24.9998C34.375 25.9373 34.0625 26.5623 33.4375 27.1873C32.8125 27.8123 32.1875 28.1248 31.25 28.1248Z" fill="#3A7AF7"/>
<path d="M40.625 28.125C40.3125 28.125 39.6875 28.125 39.375 27.8125C39.0625 27.5 38.75 27.5 38.4375 27.1875C38.125 26.875 37.8125 26.5625 37.8125 26.25C37.5 25.9375 37.5 25.3125 37.5 25C37.5 24.6875 37.5 24.0625 37.8125 23.75C38.125 23.4375 38.125 23.125 38.4375 22.8125C39.6875 21.5625 41.5625 21.5625 42.8125 22.8125C43.125 23.125 43.4375 23.4375 43.4375 23.75C43.75 24.0625 43.75 24.6875 43.75 25C43.75 25.3125 43.75 25.9375 43.4375 26.25C43.125 26.5625 43.125 26.875 42.8125 27.1875C42.1875 27.8125 41.5625 28.125 40.625 28.125Z" fill="#3A7AF7"/>
<path d="M84.375 15.625H15.625C12.1875 15.625 9.375 18.4375 9.375 21.875V78.125C9.375 81.5625 12.1875 84.375 15.625 84.375H84.375C87.8125 84.375 90.625 81.5625 90.625 78.125V21.875C90.625 18.4375 87.8125 15.625 84.375 15.625Z" stroke="#3A7AF7" stroke-width="3" stroke-miterlimit="10" stroke-linecap="round" stroke-linejoin="round"/>
<path d="M34.375 50L25 59.375L34.375 68.75" stroke="#3A7AF7" stroke-width="3" stroke-miterlimit="10" stroke-linecap="round" stroke-linejoin="round"/>
<path d="M65.625 50L75 59.375L65.625 68.75" stroke="#3A7AF7" stroke-width="3" stroke-miterlimit="10" stroke-linecap="round" stroke-linejoin="round"/>
<path d="M56.25 46.875L43.75 71.875" stroke="#3A7AF7" stroke-width="3" stroke-miterlimit="10" stroke-linecap="round" stroke-linejoin="round"/>
</svg>
