<svg width="100" height="100" viewBox="0 0 100 100" fill="none" xmlns="http://www.w3.org/2000/svg">
<path d="M84.5 52H82C81.53 36.61 72.73 23.74 59.61 18H76V20.5C76 20.8978 76.158 21.2794 76.4393 21.5607C76.7206 21.842 77.1022 22 77.5 22C77.8978 22 78.2794 21.842 78.5607 21.5607C78.842 21.2794 79 20.8978 79 20.5V12.5C79 12.1022 78.842 11.7206 78.5607 11.4393C78.2794 11.158 77.8978 11 77.5 11C77.1022 11 76.7206 11.158 76.4393 11.4393C76.158 11.7206 76 12.1022 76 12.5V15H49V12.5C49 12.1022 48.842 11.7206 48.5607 11.4393C48.2794 11.158 47.8978 11 47.5 11H39.5C39.1022 11 38.7206 11.158 38.4393 11.4393C38.158 11.7206 38 12.1022 38 12.5V15H11V12.5C11 12.1022 10.842 11.7206 10.5607 11.4393C10.2794 11.158 9.89782 11 9.5 11C9.10218 11 8.72064 11.158 8.43934 11.4393C8.15804 11.7206 8 12.1022 8 12.5V20.5C8 20.8978 8.15804 21.2794 8.43934 21.5607C8.72064 21.842 9.10218 22 9.5 22C9.89782 22 10.2794 21.842 10.5607 21.5607C10.842 21.2794 11 20.8978 11 20.5V18H27.34C20.4661 20.9303 14.5965 25.8026 10.4507 32.0195C6.30492 38.2364 4.06308 45.5278 4 53H1.5C1.10218 53 0.720644 53.158 0.43934 53.4393C0.158035 53.7206 0 54.1022 0 54.5V62.5C0 62.8978 0.158035 63.2794 0.43934 63.5607C0.720644 63.842 1.10218 64 1.5 64H9.5C9.89782 64 10.2794 63.842 10.5607 63.5607C10.842 63.2794 11 62.8978 11 62.5V54.5C11 54.1022 10.842 53.7206 10.5607 53.4393C10.2794 53.158 9.89782 53 9.5 53H7C7.10013 44.4295 10.2916 36.1833 15.9873 29.7784C21.683 23.3735 29.4999 19.2406 38 18.14V20.5C38 20.8978 38.158 21.2794 38.4393 21.5607C38.7206 21.842 39.1022 22 39.5 22H42.08L26.51 61.51C26.3785 61.8545 26.3785 62.2355 26.51 62.58L32.09 77.77L32 87.49C31.9987 87.6878 32.0365 87.8839 32.1113 88.0671C32.1861 88.2502 32.2964 88.4168 32.4358 88.5571C32.5752 88.6975 32.741 88.8089 32.9237 88.8849C33.1063 88.9609 33.3022 89 33.5 89H52.5C52.8978 89 53.2794 88.842 53.5607 88.5607C53.842 88.2794 54 87.8978 54 87.5V77.82L60.81 62.67C60.8884 62.4849 60.9288 62.286 60.9288 62.085C60.9288 61.884 60.8884 61.6851 60.81 61.5L44.92 22H47.5C47.8978 22 48.2794 21.842 48.5607 21.5607C48.842 21.2794 49 20.8978 49 20.5V18.14C66 20.47 78.39 34.44 79 52H76.5C76.1022 52 75.7206 52.158 75.4393 52.4393C75.158 52.7206 75 53.1022 75 53.5V61.5C75 61.8978 75.158 62.2794 75.4393 62.5607C75.7206 62.842 76.1022 63 76.5 63H84.5C84.8978 63 85.2794 62.842 85.5607 62.5607C85.842 62.2794 86 61.8978 86 61.5V53.5C86 53.1022 85.842 52.7206 85.5607 52.4393C85.2794 52.158 84.8978 52 84.5 52ZM8 61H3V56H8V61ZM35 86L35.06 79H51V86H35ZM51.53 76H34.63L29.51 62.08L42 30.39V57.5C42 57.8978 42.158 58.2794 42.4393 58.5607C42.7206 58.842 43.1022 59 43.5 59C43.8978 59 44.2794 58.842 44.5607 58.5607C44.842 58.2794 45 57.8978 45 57.5V30.24L57.81 62L51.53 76ZM46 19H41V14H46V19ZM83 60H78V55H83V60Z" fill="#3A7AF7"/>
</svg>
