<svg width="700" height="708" viewBox="0 0 700 708" fill="none" xmlns="http://www.w3.org/2000/svg">
<rect x="350" width="175" height="175" rx="15" fill="#18EBEB"/>
<rect x="350" y="358" width="175" height="175" rx="15" fill="#0057FF" fill-opacity="0.69"/>
<rect x="175" y="360" width="175" height="175" rx="87.5" fill="#66DE93" fill-opacity="0.67"/>
<rect x="350" y="179" width="175" height="175" rx="87.5" fill="black" fill-opacity="0.36"/>
<path d="M525 200C525 191.716 531.716 185 540 185H685C693.284 185 700 191.716 700 200V310C700 337.614 677.614 360 650 360H540C531.716 360 525 353.284 525 345V200Z" fill="#66DE93" fill-opacity="0.67"/>
<path d="M175 229C175 201.386 197.386 179 225 179H335C343.284 179 350 185.716 350 194V339C350 347.284 343.284 354 335 354H190C181.716 354 175 347.284 175 339V229Z" fill="white"/>
<path d="M175 548C175 539.716 181.716 533 190 533H335C343.284 533 350 539.716 350 548V658C350 685.614 327.614 708 300 708H190C181.716 708 175 701.284 175 693V548Z" fill="white"/>
<path d="M0 401C0 373.386 22.3858 351 50 351H160C168.284 351 175 357.716 175 366V511C175 519.284 168.284 526 160 526H15C6.71573 526 0 519.284 0 511V401Z" fill="black" fill-opacity="0.25"/>
</svg>
