<svg width="525" height="535" viewBox="0 0 525 535" fill="none" xmlns="http://www.w3.org/2000/svg">
<rect x="350" width="175" height="175" rx="15" fill="#18EBEB"/>
<rect x="350" y="358" width="175" height="175" rx="15" fill="#0057FF" fill-opacity="0.69"/>
<rect x="175" y="360" width="175" height="175" rx="87.5" fill="#66DE93" fill-opacity="0.67"/>
<rect x="350" y="179" width="175" height="175" rx="87.5" fill="black" fill-opacity="0.36"/>
<g filter="url(#filter0_d)">
<path d="M175 229C175 201.386 197.386 179 225 179H335C343.284 179 350 185.716 350 194V339C350 347.284 343.284 354 335 354H190C181.716 354 175 347.284 175 339V229Z" fill="white"/>
</g>
<path d="M0 401C0 373.386 22.3858 351 50 351H160C168.284 351 175 357.716 175 366V511C175 519.284 168.284 526 160 526H15C6.71573 526 0 519.284 0 511V401Z" fill="black" fill-opacity="0.25"/>
<defs>
<filter id="filter0_d" x="155" y="158" width="215" height="215" filterUnits="userSpaceOnUse" color-interpolation-filters="sRGB">
<feFlood flood-opacity="0" result="BackgroundImageFix"/>
<feColorMatrix in="SourceAlpha" type="matrix" values="0 0 0 0 0 0 0 0 0 0 0 0 0 0 0 0 0 0 127 0"/>
<feOffset dy="-1"/>
<feGaussianBlur stdDeviation="10"/>
<feColorMatrix type="matrix" values="0 0 0 0 0 0 0 0 0 0 0 0 0 0 0 0 0 0 0.25 0"/>
<feBlend mode="normal" in2="BackgroundImageFix" result="effect1_dropShadow"/>
<feBlend mode="normal" in="SourceGraphic" in2="effect1_dropShadow" result="shape"/>
</filter>
</defs>
</svg>
